<svg xmlns="http://www.w3.org/2000/svg" viewBox="0 0 720 420" preserveAspectRatio="xMidYMid meet">
  <defs>
    <filter id="charcoal" x="-4%" y="-16%" width="108%" height="132%">
      <feTurbulence type="fractalNoise" baseFrequency=".9 .24" numOctaves="3" seed="31" result="noise"/>
      <feDisplacementMap in="SourceGraphic" in2="noise" scale=".65" xChannelSelector="R" yChannelSelector="G"/>
    </filter>
    <linearGradient id="fade" x1="0" x2="1" y1="0" y2="0">
      <stop offset="0" stop-color="#141817" stop-opacity=".34"/>
      <stop offset=".68" stop-color="#141817" stop-opacity=".26"/>
      <stop offset="1" stop-color="#141817" stop-opacity="0"/>
    </linearGradient>
  </defs>
  <g fill="none" stroke="url(#fade)" stroke-width="1.2" filter="url(#charcoal)">
    <path d="M52 89 C174 88 288 90 402 89 C506 88 606 90 676 88"/>
    <path d="M52 134 C178 133 291 134 406 133 C506 132 592 134 646 133"/>
    <path d="M52 179 C177 178 288 180 410 179 C526 178 620 179 685 178"/>
    <path d="M52 224 C188 224 298 225 422 224 C514 223 600 224 664 223"/>
    <path d="M52 269 C170 269 281 270 399 269 C520 268 620 269 692 268"/>
  </g>
  <g fill="none" stroke="#151918" stroke-opacity=".44" stroke-width="1.05" filter="url(#charcoal)">
    <path d="M106 64 C106 136 105 216 107 292"/>
    <path d="M286 38 C285 118 287 214 286 324"/>
    <path d="M512 70 C513 138 511 231 513 346"/>
  </g>
  <path d="M418 48 C419 126 418 210 420 326" fill="none" stroke="#b98522" stroke-width="2" opacity=".8"/>
  <g fill="#963b35" opacity=".86">
    <rect x="572" y="196" width="78" height="2"/>
  </g>
  <g fill="#075f69" opacity=".9">
    <rect x="608" y="74" width="13" height="13"/>
    <rect x="608" y="154" width="13" height="13"/>
    <rect x="608" y="234" width="13" height="13"/>
  </g>
  <g fill="#151918" opacity=".65">
    <circle cx="620" cy="312" r="2.1"/>
    <circle cx="646" cy="312" r="2.1"/>
    <circle cx="672" cy="312" r="2.1"/>
    <circle cx="620" cy="338" r="2.1"/>
    <circle cx="646" cy="338" r="2.1"/>
  </g>
</svg>
