<?xml version="1.0" encoding="UTF-8"?>
<svg xmlns="http://www.w3.org/2000/svg" width="760" height="520" viewBox="0 0 760 520" role="img" aria-label="04 CATALOGUE GRID MINIATURE">
  <defs>
    <filter id="paperNoise" x="-20%" y="-20%" width="140%" height="140%">
      <feTurbulence type="fractalNoise" baseFrequency="0.8" numOctaves="3" seed="18" />
      <feColorMatrix type="saturate" values="0" />
      <feComponentTransfer>
        <feFuncA type="table" tableValues="0 0.12" />
      </feComponentTransfer>
    </filter>
    <filter id="inkNoise" x="-20%" y="-20%" width="140%" height="140%">
      <feTurbulence type="fractalNoise" baseFrequency="0.55" numOctaves="4" seed="7" />
      <feColorMatrix type="saturate" values="0.35" />
      <feComponentTransfer>
        <feFuncA type="table" tableValues="0.08 0.25" />
      </feComponentTransfer>
    </filter>
    <linearGradient id="parchmentGradient" x1="0" x2="1" y1="0" y2="1">
      <stop offset="0" stop-color="#efd5ad" />
      <stop offset="0.55" stop-color="#f5ddba" />
      <stop offset="1" stop-color="#d6a75c" />
    </linearGradient>
    <linearGradient id="tealGradient" x1="0" x2="1">
      <stop offset="0" stop-color="#073f42" />
      <stop offset="1" stop-color="#0b626b" />
    </linearGradient>
    <style>
      .bg { fill: #f8f3e9; }
      .texture { filter: url(#paperNoise); opacity: 0.55; }
      .label { fill: #94383d; font: 800 15px Arial, sans-serif; letter-spacing: 5px; }
      .serif { fill: #182025; font-family: Georgia, 'Times New Roman', serif; }
      .sans { font-family: Arial, sans-serif; }
      .small { fill: #665f52; font: 600 14px Arial, sans-serif; }
      .tiny { fill: #665f52; font: 700 11px Arial, sans-serif; letter-spacing: 2px; text-transform: uppercase; }
      .line { stroke: #5f6c69; stroke-width: 1.25; opacity: 0.6; }
      .fine { stroke: #5f6c69; stroke-width: 0.75; opacity: 0.38; }
      .gold-line { stroke: #bb811a; stroke-width: 2.5; }
      .red-line { stroke: #94383d; stroke-width: 2; }
      .teal-fill { fill: url(#tealGradient); }
      .gold-fill { fill: #bb811a; }
      .red-fill { fill: #94383d; }
      .grey-fill { fill: #a4aaa5; }
      .paper-stroke { stroke: rgba(24,32,37,0.16); stroke-width: 1; fill: rgba(255,253,248,0.55); }
    </style>
  </defs>
  <rect class="bg" width="760" height="520" />
  <rect class="texture" width="760" height="520" />
  <rect x="20" y="20" width="720" height="480" fill="none" stroke="rgba(24,32,37,0.16)" />
  <text x="42" y="58" class="label">04 CATALOGUE GRID MINIATURE</text>
  <text x="42" y="84" class="small">A submitted track becomes a searchable catalogue row.</text>
  
    <rect x="78" y="128" width="604" height="284" fill="rgba(255,253,248,0.48)" stroke="rgba(24,32,37,0.14)" />
    <rect x="78" y="128" width="46" height="284" fill="url(#parchmentGradient)" opacity="0.75" />
    <g class="tiny">
      <text x="146" y="164">TITLE</text>
      <text x="316" y="164">COMPOSER</text>
      <text x="454" y="164">STATE</text>
      <text x="578" y="164">LIVE</text>
    </g>
    <line x1="146" x2="658" y1="190" y2="190" class="fine" />
<line x1="146" x2="658" y1="238" y2="238" class="fine" />
<line x1="146" x2="658" y1="286" y2="286" class="fine" />
<line x1="146" x2="658" y1="334" y2="334" class="fine" />
<line x1="146" x2="658" y1="382" y2="382" class="fine" />
    <text x="94" y="214" class="small">01</text>
    <text x="146" y="214" class="serif" style="font-size:22px">New piano track</text>
    <text x="316" y="214" class="small">Clara R.</text>
    <circle cx="464" cy="208" r="6" class="gold-fill" /><circle cx="486" cy="208" r="6" class="grey-fill" /><circle cx="508" cy="208" r="6" class="grey-fill" />
    <rect x="574" y="194" width="52" height="22" fill="rgba(187,129,26,0.16)" stroke="rgba(187,129,26,0.4)" />
    <text x="584" y="210" class="tiny" style="font-size:9px; letter-spacing:1px">DRAFT</text>
    <text x="94" y="262" class="small">02</text>
    <text x="146" y="262" class="serif" style="font-size:22px">Review copy</text>
    <text x="316" y="262" class="small">CMC</text>
    <circle cx="464" cy="256" r="6" class="gold-fill" /><circle cx="486" cy="256" r="6" class="red-fill" /><circle cx="508" cy="256" r="6" class="grey-fill" />
    <rect x="574" y="242" width="64" height="22" fill="rgba(148,56,61,0.12)" stroke="rgba(148,56,61,0.38)" />
    <text x="584" y="258" class="tiny" style="font-size:9px; letter-spacing:1px">REVIEW</text>
    <text x="94" y="310" class="small">03</text>
    <text x="146" y="310" class="serif" style="font-size:22px">Published track</text>
    <text x="316" y="310" class="small">Catalogue</text>
    <circle cx="464" cy="304" r="6" class="gold-fill" /><circle cx="486" cy="304" r="6" class="red-fill" /><circle cx="508" cy="304" r="6" fill="#0b626b" />
    <rect x="574" y="290" width="50" height="22" fill="rgba(11,98,107,0.14)" stroke="rgba(11,98,107,0.42)" />
    <text x="584" y="306" class="tiny" style="font-size:9px; letter-spacing:1px">LIVE</text>
    <rect x="140" y="338" width="516" height="42" fill="rgba(11,98,107,0.08)" stroke="rgba(11,98,107,0.22)" />
    <text x="158" y="365" class="small">Published tracks can be found, purchased, requested and discussed.</text>
  
</svg>